<svg xmlns="http://www.w3.org/2000/svg" xmlns:xlink="http://www.w3.org/1999/xlink" width="60" zoomAndPan="magnify" viewBox="0 0 45 44.999999" height="60" preserveAspectRatio="xMidYMid meet" version="1.2"><defs><clipPath id="a940d35fbb"><path d="M 0.675781 0.675781 L 44.175781 0.675781 L 44.175781 44.175781 L 0.675781 44.175781 Z M 0.675781 0.675781 "/></clipPath></defs><g id="42392d800b"><g clip-rule="nonzero" clip-path="url(#a940d35fbb)"><path style=" stroke:none;fill-rule:nonzero;fill:#000000;fill-opacity:1;" d="M 22.425781 0.675781 C 10.414062 0.675781 0.675781 10.414062 0.675781 22.425781 C 0.675781 34.433594 10.414062 44.175781 22.425781 44.175781 C 34.433594 44.175781 44.175781 34.433594 44.175781 22.425781 C 44.175781 10.414062 34.433594 0.675781 22.425781 0.675781 Z M 22.425781 9.996094 C 24.140625 9.996094 25.53125 11.386719 25.53125 13.105469 C 25.53125 14.820312 24.140625 16.210938 22.425781 16.210938 C 20.710938 16.210938 19.316406 14.820312 19.316406 13.105469 C 19.316406 11.386719 20.710938 9.996094 22.425781 9.996094 Z M 27.085938 34.855469 L 17.765625 34.855469 C 16.910156 34.855469 16.210938 34.15625 16.210938 33.300781 C 16.210938 32.441406 16.910156 31.746094 17.765625 31.746094 L 19.316406 31.746094 L 19.316406 22.425781 L 17.765625 22.425781 C 16.910156 22.425781 16.210938 21.726562 16.210938 20.871094 C 16.210938 20.015625 16.910156 19.316406 17.765625 19.316406 L 23.980469 19.316406 C 24.835938 19.316406 25.53125 20.015625 25.53125 20.871094 L 25.53125 31.746094 L 27.085938 31.746094 C 27.941406 31.746094 28.640625 32.441406 28.640625 33.300781 C 28.640625 34.15625 27.941406 34.855469 27.085938 34.855469 Z M 27.085938 34.855469 "/></g></g></svg>