<svg xmlns="http://www.w3.org/2000/svg" xmlns:xlink="http://www.w3.org/1999/xlink" width="7874" zoomAndPan="magnify" viewBox="0 0 5905.5 816.749993" height="1089" preserveAspectRatio="xMidYMid meet" version="1.2"><g id="0124131568"><path style=" stroke:none;fill-rule:nonzero;fill:#000000;fill-opacity:1;" d="M 5749.042969 741.789062 C 5782.296875 738.84375 5792.285156 792.882812 5760.359375 799.058594 C 5709.382812 808.929688 5710.191406 745.195312 5749.042969 741.789062 Z M 5749.042969 741.789062 "/><path style=" stroke:none;fill-rule:nonzero;fill:#000000;fill-opacity:1;" d="M 570.800781 21.867188 C 532.753906 21.867188 540.261719 54.136719 540.261719 54.136719 C 540.261719 54.136719 654.398438 335.527344 714.265625 474.890625 C 717.269531 481.820312 745.152344 548.960938 749.484375 545.613281 L 927.472656 68.570312 C 931.511719 38.203125 916.445312 27.003906 890.871094 21.867188 L 998.945312 21.867188 C 983.816406 25.273438 982.664062 28.21875 975.851562 34.105469 C 962.167969 45.941406 976.949219 65.800781 980.296875 80.003906 C 1082.195312 293.207031 1153.550781 532.335938 1255.910156 743.808594 C 1269.535156 771.925781 1280.101562 799.175781 1302.386719 799.175781 L 1198.46875 799.175781 C 1241.304688 799.519531 1223.984375 768.289062 1221.445312 761.707031 L 934.515625 71.691406 L 750.464844 556.699219 L 840.121094 772.964844 C 842.375 777.410156 845.203125 781.566406 849.300781 784.570312 C 859.808594 792.1875 874.183594 799.175781 874.183594 799.175781 L 770.265625 799.175781 C 770.265625 799.175781 790.355469 791.613281 793.417969 782.722656 C 796.476562 773.832031 792.378906 762.574219 792.378906 762.574219 L 508.335938 75.960938 L 471.847656 167.757812 C 424.390625 361.851562 198.660156 623.207031 461.28125 761.128906 C 527.097656 795.652344 634.308594 816.496094 668.425781 732.78125 C 662.074219 748.023438 638.519531 798.484375 638.519531 798.484375 C 638.519531 798.484375 578.539062 800.386719 564.566406 799.234375 C 428.316406 787.6875 315.625 676.957031 333.636719 535.222656 C 369.199219 373.285156 446.214844 221.507812 499.269531 64.648438 C 499.269531 64.648438 507.871094 22.039062 458.453125 22.039062 L 570.6875 22.039062 Z M 570.800781 21.867188 "/><path style=" stroke:none;fill-rule:nonzero;fill:#000000;fill-opacity:1;" d="M 3151.839844 19.5 C 3190.636719 24.40625 3248.425781 59.566406 3274.234375 88.894531 C 3384.328125 214 3302.695312 397.011719 3143.699219 419.066406 L 3056.582031 420.855469 C 3107.964844 434.652344 3158.019531 458.035156 3197.96875 493.597656 C 3275.386719 562.527344 3355.691406 785.203125 3453.664062 795.480469 C 3408.804688 799.175781 3357.425781 760.667969 3310.257812 705.53125 C 3200.96875 588.796875 3174.703125 509.992188 3078.636719 446.660156 C 3069.746094 441.578125 3027.832031 420.910156 3021.25 420.910156 L 2898.625 420.910156 L 2898.625 763.839844 C 2898.914062 796.632812 2931.878906 799.171875 2931.878906 799.171875 L 2827.960938 799.171875 C 2850.417969 791.496094 2846.722656 792.417969 2853.25 783.988281 C 2856.367188 779.949219 2860.636719 761.707031 2861.273438 755.585938 C 2849.265625 533.144531 2877.148438 294.1875 2861.445312 73.710938 C 2860.695312 63.433594 2853.769531 19.554688 2821.496094 19.554688 L 3151.957031 19.554688 Z M 2898.570312 53.042969 L 2898.570312 406.363281 L 2904.804688 412.597656 L 3129.265625 412.597656 C 3155.1875 412.597656 3201.375 388.582031 3220.597656 370.917969 C 3332.832031 267.804688 3287.453125 43.515625 3124.589844 26.542969 C 3081.578125 27.523438 2966.230469 23.886719 2925.816406 26.253906 C 2912.308594 28.332031 2900.878906 39.648438 2898.570312 53.042969 Z M 2898.570312 53.042969 "/><path style=" stroke:none;fill-rule:nonzero;fill:#000000;fill-opacity:1;" d="M 2286.605469 18.863281 C 2629.59375 -19.46875 2858.617188 366.816406 2650.898438 645.027344 C 2479.777344 874.285156 2126.109375 846.054688 1990.207031 595.550781 C 1854.304688 345.050781 2016.1875 49.058594 2286.546875 18.863281 Z M 2261.722656 43.863281 C 1964.632812 74.113281 1885.769531 423.277344 2067.339844 634.867188 C 2237.996094 833.757812 2572.207031 833.003906 2679.011719 573.382812 C 2788.820312 306.488281 2540.972656 15.457031 2261.722656 43.863281 Z M 2261.722656 43.863281 "/><path style=" stroke:none;fill-rule:nonzero;fill:#000000;fill-opacity:1;" d="M 1443.714844 426.050781 L 1443.714844 772.15625 C 1444.003906 796.632812 1476.96875 799.175781 1476.96875 799.175781 L 1368.894531 799.175781 C 1405.785156 799.175781 1403.9375 773.714844 1404.398438 768.171875 L 1404.398438 48.710938 C 1403.9375 43.34375 1400.011719 21.867188 1368.894531 21.867188 L 1699.351562 21.867188 C 1723.601562 21.867188 1779.253906 51.367188 1799 67.707031 C 1912.210938 161.464844 1887.734375 340.546875 1756.335938 403.074219 C 1688.382812 444.0625 1443.714844 426.050781 1443.714844 426.050781 Z M 1443.714844 416.753906 C 1443.714844 416.753906 1630.1875 426.28125 1674.414062 416.753906 C 1718.636719 407.230469 1762.339844 383.847656 1786.296875 354.058594 C 1877.6875 240.324219 1825.84375 48.421875 1669.734375 32.085938 C 1628.746094 27.8125 1509.585938 25.792969 1470.964844 31.796875 C 1461.609375 33.238281 1443.714844 40.167969 1443.714844 48.828125 Z M 1443.714844 416.753906 "/><path style=" stroke:none;fill-rule:nonzero;fill:#000000;fill-opacity:1;" d="M 4095.707031 21.867188 C 4075.671875 21.867188 4066.898438 27.292969 4064.125 42.417969 C 4062.742188 49.867188 4072.613281 72.324219 4075.902344 81.15625 C 4160.945312 310.355469 4274.90625 535.050781 4360.929688 764.652344 C 4364.566406 771 4365.199219 784.046875 4399.148438 799.175781 L 4291.074219 799.175781 C 4329.175781 794.960938 4319.304688 764.824219 4319.304688 764.824219 L 4180.167969 437.367188 L 3875.746094 437.941406 C 3863.21875 473.449219 3853.058594 504.160156 3850.230469 539.207031 C 3841.625 646.703125 3909.171875 746.984375 4012.457031 776.3125 C 4051.945312 787.511719 4121.28125 796.921875 4155.804688 773.484375 C 4175.378906 760.203125 4181.613281 753.160156 4195.929688 732.609375 L 4166.949219 797.09375 C 4097.148438 803.445312 4021.925781 802.464844 3960.84375 766.902344 C 3870.609375 714.367188 3822.691406 624.707031 3846.359375 491.171875 L 3866.625 434.015625 L 4015.863281 60.199219 C 4022.734375 35.203125 4006.507812 21.808594 3987.574219 21.808594 L 4095.648438 21.808594 Z M 3883.714844 429.226562 L 4178.839844 429.226562 L 4027.0625 63.433594 Z M 3883.714844 429.226562 "/><path style=" stroke:none;fill-rule:nonzero;fill:#000000;fill-opacity:1;" d="M 4544.632812 21.867188 C 4540.589844 31.910156 4518.769531 29.601562 4513.285156 38.433594 C 4509.300781 44.84375 4512.015625 52.175781 4514.207031 58.527344 L 4802.347656 740.980469 L 4802.347656 48.886719 C 4802.347656 38.722656 4801.773438 21.867188 4769.09375 21.867188 L 4843.917969 21.867188 C 4811.296875 21.867188 4806.160156 38.203125 4806.332031 47.152344 L 4806.449219 751.488281 C 4809.21875 774.871094 4815.859375 790.976562 4843.972656 799.175781 L 4740.054688 799.175781 C 4765.285156 797.039062 4769.441406 786.761719 4768.574219 775.503906 C 4768.054688 769.039062 4762.515625 751.429688 4759.859375 744.039062 C 4686.25 542.324219 4585.851562 325.421875 4500.929688 125.898438 C 4492.210938 105.40625 4483.78125 80.753906 4469.925781 63.433594 L 4469.753906 751.546875 C 4470.386719 758.992188 4471.832031 775.214844 4476.160156 782.488281 C 4480.492188 789.765625 4484.707031 793.574219 4503.121094 799.175781 L 4432.457031 799.175781 C 4447.816406 794.730469 4454.683594 791.554688 4457.746094 780.757812 C 4460.804688 769.960938 4461.785156 48.65625 4461.785156 48.65625 C 4463.171875 30.351562 4444.003906 32.316406 4436.617188 21.867188 L 4544.691406 21.867188 Z M 4544.632812 21.867188 "/><path style=" stroke:none;fill-rule:nonzero;fill:#000000;fill-opacity:1;" d="M 5625.382812 21.867188 L 5625.382812 100.84375 C 5614.816406 60.085938 5593.917969 33.238281 5567.417969 27.871094 C 5544.441406 23.25 5468.695312 23.019531 5444.910156 26.425781 C 5437 27.523438 5418.355469 24.695312 5413.332031 44.726562 L 5413.332031 408.441406 C 5442.832031 410 5484.398438 407.863281 5499.410156 378.304688 C 5507.433594 362.488281 5508.9375 333.621094 5508.9375 333.621094 L 5508.9375 483.261719 C 5505.125 468.542969 5498.660156 408.441406 5413.332031 412.597656 L 5413.332031 772.15625 C 5413.332031 782.664062 5431.632812 789.128906 5440.753906 790.457031 C 5465 793.976562 5544.269531 793.863281 5568.226562 789.878906 C 5605.347656 783.644531 5624.691406 762.804688 5625.324219 720.195312 L 5625.324219 799.175781 L 5338.511719 799.175781 C 5336.375 787.222656 5341.511719 792.417969 5347.632812 789.820312 C 5364.144531 782.835938 5369.222656 786.242188 5371.820312 763.898438 L 5371.9375 61.125 C 5372.109375 52.234375 5369.976562 42.707031 5363.625 36.183594 C 5355.484375 27.871094 5338.511719 21.808594 5338.511719 21.808594 L 5625.324219 21.808594 Z M 5625.382812 21.867188 "/><path style=" stroke:none;fill-rule:nonzero;fill:#000000;fill-opacity:1;" d="M 3782.160156 19.558594 L 3782.160156 100.84375 C 3771.828125 50.386719 3760.742188 40.109375 3742.382812 32.257812 C 3720.851562 23.078125 3656.765625 18.402344 3651.050781 49 L 3654.6875 780.875 C 3657.113281 792.652344 3666.8125 796.691406 3684.191406 799.175781 L 3576.113281 799.175781 C 3600.015625 799.175781 3604.058594 796.058594 3605.617188 780.875 L 3609.253906 49 C 3602.441406 12.515625 3467.925781 10.433594 3472.714844 100.84375 L 3472.714844 19.558594 Z M 3782.160156 19.558594 "/><path style=" stroke:none;fill-rule:nonzero;fill:#000000;fill-opacity:1;" d="M 5247.121094 17.824219 L 5247.121094 100.84375 C 5241 80.234375 5233.726562 56.390625 5219.753906 42.996094 C 5195.910156 20.019531 5114.21875 13.035156 5110.179688 57.488281 C 5110.179688 57.488281 5107.695312 732.4375 5109.832031 759.800781 C 5111.96875 787.167969 5126.054688 792.476562 5147.359375 799.175781 L 5035.125 799.175781 C 5062.144531 797.789062 5073.574219 792.132812 5072.59375 763.898438 L 5072.25 53.273438 C 5067.167969 21.117188 5014.34375 22.789062 4989.402344 28.101562 C 4955.976562 35.144531 4935.363281 95.53125 4935.363281 94.609375 L 4935.363281 17.824219 Z M 5247.121094 17.824219 "/><path style=" stroke:none;fill-rule:nonzero;fill:#000000;fill-opacity:1;" d="M 238.261719 21.867188 C 208.011719 21.867188 204.027344 48.941406 204.777344 56.96875 L 204.953125 763.957031 C 207.550781 786.300781 215.6875 794.382812 238.261719 799.230469 L 134.34375 799.230469 C 169.617188 794.785156 166.675781 763.785156 167.597656 755.585938 L 167.773438 65.398438 C 167.253906 56.390625 166.964844 21.925781 130.1875 21.925781 L 238.261719 21.925781 Z M 238.261719 21.867188 "/><path style=" stroke:none;fill-rule:nonzero;fill:#000000;fill-opacity:1;" d="M 5749.042969 741.789062 C 5783.453125 738.84375 5793.613281 796 5754.875 801.195312 C 5713.367188 806.738281 5708.921875 745.253906 5749.042969 741.789062 Z M 5749.042969 741.789062 "/><path style=" stroke:none;fill-rule:nonzero;fill:#000000;fill-opacity:1;" d="M 2317.722656 388.699219 C 2344.050781 360.699219 2389.890625 400.589844 2362.582031 431.476562 C 2336.773438 460.691406 2292.667969 415.3125 2317.722656 388.699219 Z M 2317.722656 388.699219 "/></g></svg>