<svg xmlns="http://www.w3.org/2000/svg" xmlns:xlink="http://www.w3.org/1999/xlink" width="60" zoomAndPan="magnify" viewBox="0 0 45 44.999999" height="60" preserveAspectRatio="xMidYMid meet" version="1.2"><defs><clipPath id="2cac5e2bf6"><path d="M 4.5 0 L 40.5 0 L 40.5 44.25 L 4.5 44.25 Z M 4.5 0 "/></clipPath></defs><g id="088f814ae4"><g clip-rule="nonzero" clip-path="url(#2cac5e2bf6)"><path style=" stroke:none;fill-rule:nonzero;fill:#000000;fill-opacity:1;" d="M 19.324219 3.160156 L 19.324219 41.089844 C 19.324219 41.507812 19.246094 41.910156 19.085938 42.300781 C 18.921875 42.6875 18.695312 43.027344 18.394531 43.324219 C 18.097656 43.621094 17.753906 43.847656 17.367188 44.007812 C 16.976562 44.167969 16.574219 44.25 16.152344 44.25 L 7.6875 44.25 C 7.265625 44.25 6.863281 44.167969 6.472656 44.007812 C 6.082031 43.847656 5.742188 43.621094 5.441406 43.324219 C 5.144531 43.027344 4.917969 42.6875 4.753906 42.300781 C 4.59375 41.910156 4.511719 41.507812 4.511719 41.089844 L 4.511719 3.160156 C 4.511719 2.742188 4.59375 2.339844 4.753906 1.949219 C 4.917969 1.5625 5.144531 1.222656 5.441406 0.925781 C 5.742188 0.628906 6.082031 0.402344 6.472656 0.242188 C 6.863281 0.0820312 7.265625 0 7.6875 0 L 16.152344 0 C 16.574219 0 16.976562 0.0820312 17.367188 0.242188 C 17.753906 0.402344 18.097656 0.628906 18.394531 0.925781 C 18.695312 1.222656 18.921875 1.5625 19.085938 1.949219 C 19.246094 2.339844 19.324219 2.742188 19.324219 3.160156 Z M 37.3125 0 L 28.847656 0 C 28.425781 0 28.023438 0.0820312 27.632812 0.242188 C 27.246094 0.402344 26.902344 0.628906 26.605469 0.925781 C 26.304688 1.222656 26.078125 1.5625 25.914062 1.949219 C 25.753906 2.339844 25.675781 2.742188 25.675781 3.160156 L 25.675781 41.089844 C 25.675781 41.507812 25.753906 41.910156 25.914062 42.300781 C 26.078125 42.6875 26.304688 43.027344 26.605469 43.324219 C 26.902344 43.621094 27.246094 43.847656 27.632812 44.007812 C 28.023438 44.167969 28.425781 44.25 28.847656 44.25 L 37.3125 44.25 C 37.734375 44.25 38.136719 44.167969 38.527344 44.007812 C 38.917969 43.847656 39.257812 43.621094 39.558594 43.324219 C 39.855469 43.027344 40.082031 42.6875 40.246094 42.300781 C 40.40625 41.910156 40.488281 41.507812 40.488281 41.089844 L 40.488281 3.160156 C 40.488281 2.742188 40.40625 2.339844 40.246094 1.949219 C 40.082031 1.5625 39.855469 1.222656 39.558594 0.925781 C 39.257812 0.628906 38.917969 0.402344 38.527344 0.242188 C 38.136719 0.0820312 37.734375 0 37.3125 0 Z M 37.3125 0 "/></g></g></svg>